<svg width="44" height="36" viewBox="0 0 44 36" fill="none" xmlns="http://www.w3.org/2000/svg">
<path d="M39.3335 0.666504H4.66683C2.2835 0.666504 0.355163 2.6165 0.355163 4.99984L0.333496 30.9998C0.333496 33.3832 2.2835 35.3332 4.66683 35.3332H39.3335C41.7168 35.3332 43.6668 33.3832 43.6668 30.9998V4.99984C43.6668 2.6165 41.7168 0.666504 39.3335 0.666504ZM38.4668 9.87484L23.1485 19.4515C22.4552 19.8848 21.5452 19.8848 20.8518 19.4515L5.5335 9.87484C5.31624 9.75288 5.12599 9.5881 4.97425 9.39049C4.82252 9.19287 4.71246 8.96652 4.65074 8.72514C4.58902 8.48376 4.57692 8.23236 4.61517 7.98617C4.65342 7.73997 4.74122 7.5041 4.87327 7.29282C5.00532 7.08155 5.17886 6.89926 5.3834 6.75699C5.58794 6.61473 5.81922 6.51545 6.06324 6.46515C6.30725 6.41486 6.55894 6.4146 6.80306 6.46439C7.04719 6.51418 7.27867 6.61299 7.4835 6.75484L22.0002 15.8332L36.5168 6.75484C36.7217 6.61299 36.9531 6.51418 37.1973 6.46439C37.4414 6.4146 37.6931 6.41486 37.9371 6.46515C38.1811 6.51545 38.4124 6.61473 38.6169 6.75699C38.8215 6.89926 38.995 7.08155 39.127 7.29282C39.2591 7.5041 39.3469 7.73997 39.3852 7.98617C39.4234 8.23236 39.4113 8.48376 39.3496 8.72514C39.2879 8.96652 39.1778 9.19287 39.0261 9.39049C38.8743 9.5881 38.6841 9.75288 38.4668 9.87484Z" fill="#25447F"/>
</svg>
