<svg width="172" height="36" viewBox="0 0 172 36" fill="none" xmlns="http://www.w3.org/2000/svg">
<rect x="0.597168" y="0.0444336" width="170.653" height="35.0266" rx="12.0177" fill="#4A87FE"/>
<path d="M62.9505 23.0576V12.6419H64.887V23.0576H62.9505ZM59.9798 14.4243V12.6419H67.8576V14.4243H59.9798ZM72.4054 19.7128L71.9506 17.0356H72.6181C72.6963 15.769 73.3589 15.1358 74.6059 15.1358C75.3443 15.1358 75.9091 15.4072 76.3003 15.95C76.6964 16.4928 76.8944 17.2752 76.8944 18.2972H74.9139C74.9139 17.8375 74.8284 17.5074 74.6572 17.307C74.491 17.1065 74.222 17.0062 73.8504 17.0062C73.3663 17.0062 73.0044 17.2409 72.7648 17.7104C72.5252 18.1798 72.4054 18.8473 72.4054 19.7128ZM68.7819 23.0576V21.3559H74.2245V23.0576H68.7819ZM70.4249 23.0576V15.2825H72.112L72.4054 17.5123V23.0576H70.4249ZM69.0753 16.9842V15.2825H72.0093L72.156 16.9842H69.0753ZM82.9531 23.131L82.7844 20.8278L82.7551 19.8155V18.2972C82.7551 17.8815 82.5766 17.5783 82.2196 17.3876C81.8676 17.192 81.3419 17.0845 80.6426 17.0649L78.6548 17.0136L78.8015 15.2091L80.4959 15.2311C81.9042 15.2507 82.9507 15.5294 83.6353 16.0673C84.3199 16.6003 84.6622 17.3803 84.6622 18.4072V21.2825L85.7405 21.4439V23.0576L82.9531 23.131ZM80.3199 23.2043C79.4935 23.2043 78.8504 23.0014 78.3908 22.5955C77.9311 22.1896 77.7013 21.6126 77.7013 20.8644C77.7013 19.994 78.002 19.3265 78.6035 18.862C79.2049 18.3974 80.0582 18.1652 81.1634 18.1652C81.5888 18.1652 81.9556 18.1872 82.2636 18.2312C82.5766 18.2752 82.892 18.3436 83.2099 18.4365L82.8871 19.9842C82.5742 19.9109 82.293 19.8693 82.0436 19.8595C81.7942 19.8449 81.5326 19.8375 81.2587 19.8375C80.2318 19.8375 79.7184 20.1309 79.7184 20.7177C79.7184 20.9818 79.8113 21.1847 79.9971 21.3265C80.1829 21.4635 80.4543 21.5319 80.8113 21.5319C81.2416 21.5319 81.601 21.4512 81.8896 21.2899C82.1781 21.1285 82.3932 20.9231 82.535 20.6737C82.6817 20.4243 82.7551 20.1676 82.7551 19.9036V19.4194L83.0338 21.4146H82.4103L82.6671 21.1798C82.6524 21.6297 82.5497 22.0063 82.359 22.3094C82.1683 22.6077 81.8993 22.8327 81.5521 22.9843C81.2098 23.131 80.7991 23.2043 80.3199 23.2043ZM89.0486 23.0576L86.3859 15.2825H88.4104L90.2588 21.3119H90.3909L92.2393 15.2825H94.2638L91.6011 23.0576H89.0486ZM99.743 23.2043C98.3983 23.2043 97.3591 22.8571 96.6256 22.1627C95.8921 21.4635 95.5254 20.461 95.5254 19.1554C95.5254 17.884 95.8359 16.8962 96.4569 16.192C97.0829 15.4879 97.9631 15.1358 99.0975 15.1358C100.208 15.1358 101.066 15.461 101.672 16.1113C102.279 16.7617 102.582 17.7079 102.582 18.95C102.582 19.3021 102.567 19.637 102.538 19.9549H96.831V18.5759H100.631C100.631 18.0527 100.496 17.6517 100.227 17.373C99.9631 17.0942 99.5914 16.9549 99.1122 16.9549C98.5939 16.9549 98.1904 17.1407 97.9019 17.5123C97.6183 17.8791 97.4765 18.4023 97.4765 19.082C97.4765 19.8155 97.6868 20.373 98.1073 20.7544C98.5328 21.1358 99.1367 21.3265 99.9191 21.3265C100.271 21.3265 100.618 21.3094 100.961 21.2752C101.303 21.2361 101.653 21.1847 102.01 21.1212L102.2 22.9989C101.701 23.087 101.247 23.1432 100.836 23.1676C100.425 23.1921 100.061 23.2043 99.743 23.2043ZM109.088 23.2043C108.11 23.2043 107.403 22.9354 106.968 22.3975C106.538 21.8596 106.323 20.9989 106.323 19.8155V12.0551H108.303V19.7422C108.303 20.0649 108.337 20.329 108.406 20.5344C108.474 20.7397 108.606 20.8913 108.802 20.9891C108.997 21.0869 109.288 21.1358 109.675 21.1358C110.105 21.1358 110.648 21.0429 111.303 20.8571L111.53 22.8962C111.115 23.0038 110.714 23.0821 110.327 23.131C109.941 23.1799 109.528 23.2043 109.088 23.2043ZM104.122 13.8815V12.0551H106.455V13.8815H104.122Z" fill="white"/>
</svg>
