<svg width="86" height="13" viewBox="0 0 86 13" fill="none" xmlns="http://www.w3.org/2000/svg">
<path d="M1.56588 7.44225V5.98744H2.73333C3.25618 5.98744 3.6593 5.84375 3.94267 5.55638C4.23004 5.26901 4.37373 4.86789 4.37373 4.35302C4.37373 3.86609 4.23004 3.49091 3.94267 3.22749C3.6593 2.96406 3.25618 2.83235 2.73333 2.83235H1.58983V1.37754H2.73333C3.79899 1.37754 4.62318 1.62899 5.20591 2.13189C5.78863 2.6308 6.07999 3.33725 6.07999 4.25124C6.07999 5.26502 5.78863 6.0513 5.20591 6.61007C4.62318 7.16486 3.79899 7.44225 2.73333 7.44225H1.56588ZM0.129034 9.87891V1.37754H1.70957V9.87891H0.129034ZM9.79185 7.14889L9.42067 4.96368H9.96547C10.0293 3.92995 10.5701 3.41308 11.5879 3.41308C12.1906 3.41308 12.6516 3.63459 12.9709 4.07762C13.2942 4.52065 13.4558 5.15925 13.4558 5.99342H11.8394C11.8394 5.61825 11.7695 5.34884 11.6298 5.1852C11.4941 5.02155 11.2746 4.93973 10.9713 4.93973C10.5761 4.93973 10.2808 5.13131 10.0852 5.51447C9.88964 5.89763 9.79185 6.44244 9.79185 7.14889ZM6.83434 9.87891V8.48995H11.2766V9.87891H6.83434ZM8.1754 9.87891V3.53282H9.55238L9.79185 5.35283V9.87891H8.1754ZM7.07381 4.92177V3.53282H9.46856L9.5883 4.92177H7.07381ZM17.2335 9.99864C16.3195 9.99864 15.6111 9.71127 15.1082 9.13653C14.6053 8.56179 14.3539 7.75157 14.3539 6.70586C14.3539 5.65616 14.6053 4.84594 15.1082 4.27519C15.6111 3.70045 16.3195 3.41308 17.2335 3.41308C18.1475 3.41308 18.856 3.70045 19.3589 4.27519C19.8618 4.84594 20.1132 5.65616 20.1132 6.70586C20.1132 7.75157 19.8618 8.56179 19.3589 9.13653C18.856 9.71127 18.1475 9.99864 17.2335 9.99864ZM17.2335 8.46002C17.6247 8.46002 17.926 8.30835 18.1376 8.00501C18.3491 7.69769 18.4549 7.26464 18.4549 6.70586C18.4549 6.1431 18.3491 5.71005 18.1376 5.40671C17.926 5.10337 17.6247 4.95171 17.2335 4.95171C16.8464 4.95171 16.545 5.10337 16.3295 5.40671C16.118 5.71005 16.0122 6.1431 16.0122 6.70586C16.0122 7.26464 16.118 7.69769 16.3295 8.00501C16.545 8.30835 16.8464 8.46002 17.2335 8.46002ZM23.7892 9.99864C23.0029 9.99864 22.3902 9.71526 21.9512 9.14851C21.5162 8.58175 21.2986 7.76953 21.2986 6.71185C21.2986 5.66215 21.5162 4.84993 21.9512 4.27519C22.3902 3.70045 23.0069 3.41308 23.8011 3.41308C24.2641 3.41308 24.6154 3.51885 24.8548 3.73038C25.0983 3.93793 25.256 4.25523 25.3278 4.6823H25.8546L25.4835 6.71185C25.4835 6.0972 25.3797 5.64818 25.1721 5.3648C24.9686 5.08142 24.6593 4.93973 24.2442 4.93973C23.8331 4.93973 23.5158 5.09539 23.2923 5.40671C23.0687 5.71404 22.957 6.14908 22.957 6.71185C22.957 7.29457 23.0648 7.73361 23.2803 8.02896C23.4998 8.32431 23.8211 8.47199 24.2442 8.47199C24.7072 8.47199 25.0285 8.3323 25.2081 8.05291C25.3917 7.77352 25.4835 7.3265 25.4835 6.71185L25.9145 8.72943H25.3517C25.2879 9.1525 25.1222 9.4698 24.8548 9.68134C24.5874 9.89288 24.2322 9.99864 23.7892 9.99864ZM25.7169 9.93878L25.4835 8.68153V0.898592H27.1059V9.87891L25.7169 9.93878ZM30.6801 9.99864C30.0774 9.99864 29.6104 9.80108 29.2791 9.40594C28.9479 9.00682 28.7822 8.44605 28.7822 7.72363V3.53282H30.4047V7.32251C30.4047 7.68571 30.4865 7.9671 30.6501 8.16666C30.8178 8.36223 31.0473 8.46002 31.3386 8.46002C31.7178 8.46002 32.0032 8.31434 32.1947 8.02297C32.3903 7.72762 32.4881 7.2347 32.4881 6.54422L32.8114 8.65758H32.3205C32.2207 9.08864 32.0271 9.41991 31.7397 9.6514C31.4524 9.8829 31.0991 9.99864 30.6801 9.99864ZM32.5959 9.93878L32.4881 8.41811V7.30455H34.1105V8.43008L34.9846 8.56179V9.87891L32.5959 9.93878ZM32.4881 8.08284V3.53282H34.1105V7.72363L32.4881 8.08284ZM39.5287 9.99864C38.3752 9.99864 37.4831 9.71526 36.8525 9.14851C36.2219 8.57776 35.9066 7.75955 35.9066 6.69389C35.9066 5.65616 36.194 4.84993 36.7687 4.27519C37.3435 3.70045 38.1637 3.41308 39.2293 3.41308C39.8839 3.41308 40.4447 3.5408 40.9116 3.79624C41.3826 4.05168 41.7159 4.41289 41.9114 4.87986L40.738 5.81382C40.5624 5.53842 40.3389 5.32688 40.0675 5.17921C39.8001 5.02754 39.5047 4.95171 39.1814 4.95171C38.6745 4.95171 38.2774 5.09739 37.99 5.38875C37.7067 5.68011 37.565 6.0952 37.565 6.63402C37.565 7.22872 37.7466 7.68172 38.1098 7.99304C38.477 8.30436 38.9978 8.46002 39.6723 8.46002C39.9597 8.46002 40.2451 8.44605 40.5285 8.41811C40.8158 8.39017 41.0952 8.35225 41.3666 8.30436L41.5343 9.81904C41.211 9.89088 40.8777 9.93878 40.5345 9.96272C40.1912 9.98667 39.8559 9.99864 39.5287 9.99864ZM47.3176 9.99864C46.224 9.99864 45.4337 9.77912 44.9468 9.34009C44.4599 8.90105 44.2164 8.19859 44.2164 7.23271V6.40652H45.8328V7.07705C45.8328 7.55999 45.9566 7.91122 46.204 8.13074C46.4555 8.35026 46.8666 8.46002 47.4373 8.46002C47.6209 8.46002 47.8165 8.45004 48.024 8.43008C48.2356 8.40613 48.4751 8.3762 48.7425 8.34028L48.8862 9.85496C48.6227 9.90285 48.3653 9.93878 48.1138 9.96272C47.8664 9.98667 47.601 9.99864 47.3176 9.99864ZM44.2164 6.78369V1.61702H45.8328V6.78369H44.2164ZM42.6957 5.02355V3.53282H48.6467V5.02355H42.6957ZM52.7656 9.87891V3.89203H54.3821V9.87891H52.7656ZM50.4188 9.87891V8.38219H52.8854V9.87891H50.4188ZM54.2624 9.87891V8.38219H56.262V9.87891H54.2624ZM50.778 5.02954V3.53282H54.3821V5.02954H50.778ZM53.502 2.67669C53.1947 2.67669 52.9453 2.5809 52.7537 2.38932C52.5621 2.19774 52.4663 1.94829 52.4663 1.64097C52.4663 1.33364 52.5621 1.08419 52.7537 0.892606C52.9453 0.701026 53.1947 0.605236 53.502 0.605236C53.8094 0.605236 54.0588 0.701026 54.2504 0.892606C54.442 1.08419 54.5378 1.33364 54.5378 1.64097C54.5378 1.94829 54.442 2.19774 54.2504 2.38932C54.0588 2.5809 53.8094 2.67669 53.502 2.67669ZM59.2973 9.87891L57.1241 3.53282H58.7765L60.2852 8.45403H60.3929L61.9016 3.53282H63.554L61.3808 9.87891H59.2973ZM67.1341 9.87891V3.89203H68.7506V9.87891H67.1341ZM64.7873 9.87891V8.38219H67.2539V9.87891H64.7873ZM68.6309 9.87891V8.38219H70.6305V9.87891H68.6309ZM65.1465 5.02954V3.53282H68.7506V5.02954H65.1465ZM67.8705 2.67669C67.5632 2.67669 67.3138 2.5809 67.1222 2.38932C66.9306 2.19774 66.8348 1.94829 66.8348 1.64097C66.8348 1.33364 66.9306 1.08419 67.1222 0.892606C67.3138 0.701026 67.5632 0.605236 67.8705 0.605236C68.1779 0.605236 68.4273 0.701026 68.6189 0.892606C68.8105 1.08419 68.9063 1.33364 68.9063 1.64097C68.9063 1.94829 68.8105 2.19774 68.6189 2.38932C68.4273 2.5809 68.1779 2.67669 67.8705 2.67669ZM76.0546 9.99864C74.961 9.99864 74.1707 9.77912 73.6838 9.34009C73.1969 8.90105 72.9534 8.19859 72.9534 7.23271V6.40652H74.5698V7.07705C74.5698 7.55999 74.6936 7.91122 74.941 8.13074C75.1925 8.35026 75.6036 8.46002 76.1743 8.46002C76.3579 8.46002 76.5535 8.45004 76.761 8.43008C76.9726 8.40613 77.2121 8.3762 77.4795 8.34028L77.6232 9.85496C77.3597 9.90285 77.1023 9.93878 76.8508 9.96272C76.6034 9.98667 76.338 9.99864 76.0546 9.99864ZM72.9534 6.78369V1.61702H74.5698V6.78369H72.9534ZM71.4327 5.02355V3.53282H77.3837V5.02355H71.4327ZM78.6469 12.7526L78.587 11.3457L79.6826 11.226C80.0578 11.182 80.3791 11.0823 80.6465 10.9266C80.9139 10.771 81.1414 10.5375 81.329 10.2261C81.5206 9.91882 81.6862 9.5157 81.8259 9.0168L83.3586 3.53282H85.0768L83.2927 9.31614C83.0532 10.0785 82.7779 10.6911 82.4665 11.1541C82.1552 11.6211 81.786 11.9683 81.359 12.1958C80.9319 12.4273 80.421 12.573 79.8263 12.6329L78.6469 12.7526ZM80.6585 9.87891L78.5272 3.53282H80.2454L81.82 8.50192H82.1073V9.87891H80.6585Z" fill="white"/>
</svg>
