<svg width="115" height="13" viewBox="0 0 115 13" fill="none" xmlns="http://www.w3.org/2000/svg">
<path d="M3.50884 9.99864C3.0259 9.99864 2.55693 9.95873 2.10193 9.87891C1.64693 9.79509 1.23982 9.67934 0.880605 9.53167L1.09613 7.91521C1.53517 8.09881 1.97022 8.2405 2.40127 8.34028C2.83632 8.44006 3.23744 8.48995 3.60463 8.48995C4.0317 8.48995 4.35898 8.41412 4.58648 8.26245C4.81398 8.11078 4.92773 7.89326 4.92773 7.60988C4.92773 7.23869 4.69425 6.94334 4.22727 6.72382L3.00595 6.13112C2.40327 5.83577 1.93629 5.47057 1.60502 5.03552C1.27374 4.60048 1.10811 4.11953 1.10811 3.59269C1.10811 2.85031 1.35357 2.27557 1.84449 1.86847C2.33542 1.46136 3.02989 1.25781 3.92793 1.25781C4.45078 1.25781 4.94569 1.3496 5.41267 1.5332C5.88364 1.7168 6.30072 1.98222 6.66393 2.32946L5.57432 3.58071C5.29892 3.31729 5.02153 3.11573 4.74214 2.97604C4.46275 2.83235 4.19334 2.76051 3.93391 2.76051C3.58268 2.76051 3.30928 2.83634 3.11371 2.98801C2.91814 3.13569 2.82035 3.35122 2.82035 3.63459C2.82035 3.82218 2.8882 3.99979 3.02391 4.16743C3.1636 4.33506 3.36117 4.48673 3.61661 4.62243L4.76609 5.21513C5.36478 5.52645 5.82576 5.88965 6.14906 6.30474C6.47634 6.71983 6.63998 7.16486 6.63998 7.63981C6.63998 8.39416 6.36858 8.97688 5.82576 9.38798C5.28295 9.79509 4.51065 9.99864 3.50884 9.99864ZM11.4893 9.99864C10.3918 9.99864 9.54361 9.71526 8.94493 9.14851C8.34624 8.57776 8.0469 7.75955 8.0469 6.69389C8.0469 5.65616 8.30034 4.84993 8.80723 4.27519C9.31811 3.70045 10.0365 3.41308 10.9625 3.41308C11.8685 3.41308 12.569 3.6785 13.0639 4.20933C13.5588 4.74017 13.8063 5.51248 13.8063 6.52626C13.8063 6.81363 13.7943 7.08703 13.7703 7.34646H9.11256V6.22093H12.2138C12.2138 5.79386 12.104 5.46658 11.8845 5.23908C11.669 5.01158 11.3656 4.89783 10.9745 4.89783C10.5514 4.89783 10.2221 5.04949 9.98664 5.35283C9.75515 5.65217 9.6394 6.07924 9.6394 6.63402C9.6394 7.23271 9.81103 7.68771 10.1543 7.99903C10.5015 8.31034 10.9944 8.466 11.633 8.466C11.9204 8.466 12.2038 8.45203 12.4832 8.4241C12.7626 8.39217 13.0479 8.35026 13.3393 8.29837L13.495 9.83101C13.0878 9.90285 12.7167 9.94875 12.3814 9.96871C12.0461 9.98867 11.7488 9.99864 11.4893 9.99864ZM19.1166 9.99864C18.3184 9.99864 17.7416 9.77912 17.3864 9.34009C17.0352 8.90105 16.8596 8.19859 16.8596 7.23271V0.898592H18.476V7.17284C18.476 7.43626 18.504 7.65179 18.5598 7.81942C18.6157 7.98705 18.7235 8.11078 18.8831 8.19061C19.0428 8.27043 19.2803 8.31034 19.5956 8.31034C19.9468 8.31034 20.3898 8.23451 20.9247 8.08284L21.1103 9.74719C20.771 9.835 20.4437 9.89886 20.1284 9.93878C19.8131 9.97869 19.4758 9.99864 19.1166 9.99864ZM15.0635 2.38932V0.898592H16.9673V2.38932H15.0635ZM23.9959 9.87891V4.07164C23.9959 1.87645 25.0556 0.778855 27.175 0.778855C27.6659 0.778855 28.1389 0.818767 28.5939 0.898592L28.4382 2.4013C28.1708 2.36937 27.9333 2.34742 27.7258 2.33544C27.5222 2.32347 27.3266 2.31748 27.139 2.31748C26.1213 2.31748 25.6124 2.88224 25.6124 4.01177V9.87891H23.9959ZM22.0682 6.185V4.79605H28.1389V6.185H22.0682ZM29.444 6.38257V4.88585H35.6344V6.38257H29.444ZM38.9272 9.87891V1.37754H40.5077V9.87891H38.9272ZM37.0353 9.87891V8.45403H42.4116V9.87891H37.0353ZM37.0353 2.79643V1.37754H42.4116V2.79643H37.0353ZM48.3386 9.87891V5.58033C48.3386 5.14129 48.2109 4.92177 47.9554 4.92177C47.668 4.92177 47.5244 5.15925 47.5244 5.63421L47.0933 4.32309H47.6321C47.668 4.03971 47.7778 3.81819 47.9614 3.65854C48.149 3.4949 48.3944 3.41308 48.6978 3.41308C49.1248 3.41308 49.4362 3.53082 49.6317 3.76631C49.8313 4.00179 49.9311 4.38295 49.9311 4.9098V9.87891H48.3386ZM43.8843 9.87891V3.53282H45.3391L45.4828 4.87388V9.87891H43.8843ZM46.321 9.87891V5.46059C46.321 5.10138 46.1933 4.92177 45.9378 4.92177C45.6345 4.92177 45.4828 5.15925 45.4828 5.63421L45.1116 4.32309H45.5666C45.6545 3.71642 45.9758 3.41308 46.5305 3.41308C46.8379 3.41308 47.0793 3.52683 47.2549 3.75433C47.4346 3.98183 47.5244 4.32708 47.5244 4.79006V9.87891H46.321ZM51.4039 12.6329V3.53282H52.9066L53.0263 4.87388V12.6329H51.4039ZM54.7206 9.99864C54.2776 9.99864 53.9223 9.89288 53.6549 9.68134C53.3875 9.4698 53.2219 9.1525 53.158 8.72943H52.5952L53.0263 6.71185C53.0263 7.3265 53.1181 7.77352 53.3017 8.05291C53.4853 8.3323 53.8066 8.47199 54.2656 8.47199C54.6886 8.47199 55.0079 8.32431 55.2235 8.02896C55.443 7.73361 55.5528 7.29457 55.5528 6.71185C55.5528 6.14908 55.441 5.71404 55.2175 5.40671C54.994 5.09539 54.6767 4.93973 54.2656 4.93973C53.8545 4.93973 53.5452 5.08142 53.3376 5.3648C53.1301 5.64818 53.0263 6.0972 53.0263 6.71185L52.6551 4.6823H53.1221C53.1979 4.25523 53.3596 3.93793 53.607 3.73038C53.8585 3.51885 54.2257 3.41308 54.7086 3.41308C55.5029 3.41308 56.1175 3.70045 56.5526 4.27519C56.9916 4.84993 57.2111 5.66215 57.2111 6.71185C57.2111 7.76953 56.9916 8.58175 56.5526 9.14851C56.1175 9.71526 55.5069 9.99864 54.7206 9.99864ZM61.0188 7.14889L60.6476 4.96368H61.1924C61.2563 3.92995 61.7971 3.41308 62.8148 3.41308C63.4175 3.41308 63.8785 3.63459 64.1978 4.07762C64.5211 4.52065 64.6827 5.15925 64.6827 5.99342H63.0663C63.0663 5.61825 62.9964 5.34884 62.8567 5.1852C62.721 5.02155 62.5015 4.93973 62.1982 4.93973C61.8031 4.93973 61.5077 5.13131 61.3121 5.51447C61.1166 5.89763 61.0188 6.44244 61.0188 7.14889ZM58.0613 9.87891V8.48995H62.5035V9.87891H58.0613ZM59.4023 9.87891V3.53282H60.7793L61.0188 5.35283V9.87891H59.4023ZM58.3007 4.92177V3.53282H60.6955L60.8152 4.92177H58.3007ZM68.4605 9.99864C67.5465 9.99864 66.838 9.71127 66.3351 9.13653C65.8322 8.56179 65.5808 7.75157 65.5808 6.70586C65.5808 5.65616 65.8322 4.84594 66.3351 4.27519C66.838 3.70045 67.5465 3.41308 68.4605 3.41308C69.3745 3.41308 70.0829 3.70045 70.5858 4.27519C71.0887 4.84594 71.3401 5.65616 71.3401 6.70586C71.3401 7.75157 71.0887 8.56179 70.5858 9.13653C70.0829 9.71127 69.3745 9.99864 68.4605 9.99864ZM68.4605 8.46002C68.8516 8.46002 69.1529 8.30835 69.3645 8.00501C69.576 7.69769 69.6818 7.26464 69.6818 6.70586C69.6818 6.1431 69.576 5.71005 69.3645 5.40671C69.1529 5.10337 68.8516 4.95171 68.4605 4.95171C68.0733 4.95171 67.772 5.10337 67.5564 5.40671C67.3449 5.71005 67.2391 6.1431 67.2391 6.70586C67.2391 7.26464 67.3449 7.69769 67.5564 8.00501C67.772 8.30835 68.0733 8.46002 68.4605 8.46002ZM74.603 9.87891L72.4298 3.53282H74.0821L75.5908 8.45403H75.6986L77.2073 3.53282H78.8597L76.6864 9.87891H74.603ZM83.3319 9.99864C82.2343 9.99864 81.3861 9.71526 80.7874 9.14851C80.1887 8.57776 79.8894 7.75955 79.8894 6.69389C79.8894 5.65616 80.1428 4.84993 80.6497 4.27519C81.1606 3.70045 81.879 3.41308 82.805 3.41308C83.711 3.41308 84.4115 3.6785 84.9064 4.20933C85.4013 4.74017 85.6488 5.51248 85.6488 6.52626C85.6488 6.81363 85.6368 7.08703 85.6129 7.34646H80.9551V6.22093H84.0563C84.0563 5.79386 83.9465 5.46658 83.727 5.23908C83.5115 5.01158 83.2081 4.89783 82.817 4.89783C82.3939 4.89783 82.0646 5.04949 81.8291 5.35283C81.5977 5.65217 81.4819 6.07924 81.4819 6.63402C81.4819 7.23271 81.6535 7.68771 81.9968 7.99903C82.344 8.31034 82.8369 8.466 83.4755 8.466C83.7629 8.466 84.0463 8.45203 84.3257 8.4241C84.6051 8.39217 84.8904 8.35026 85.1818 8.29837L85.3375 9.83101C84.9304 9.90285 84.5592 9.94875 84.2239 9.96871C83.8886 9.98867 83.5913 9.99864 83.3319 9.99864ZM91.4441 9.87891V5.58033C91.4441 5.14129 91.3164 4.92177 91.0609 4.92177C90.7735 4.92177 90.6299 5.15925 90.6299 5.63421L90.1988 4.32309H90.7376C90.7735 4.03971 90.8833 3.81819 91.0669 3.65854C91.2545 3.4949 91.5 3.41308 91.8033 3.41308C92.2304 3.41308 92.5417 3.53082 92.7372 3.76631C92.9368 4.00179 93.0366 4.38295 93.0366 4.9098V9.87891H91.4441ZM86.9898 9.87891V3.53282H88.4447L88.5883 4.87388V9.87891H86.9898ZM89.4265 9.87891V5.46059C89.4265 5.10138 89.2988 4.92177 89.0433 4.92177C88.74 4.92177 88.5883 5.15925 88.5883 5.63421L88.2172 4.32309H88.6722C88.76 3.71642 89.0813 3.41308 89.636 3.41308C89.9434 3.41308 90.1848 3.52683 90.3605 3.75433C90.5401 3.98183 90.6299 4.32708 90.6299 4.79006V9.87891H89.4265ZM97.7004 9.99864C96.6028 9.99864 95.7546 9.71526 95.1559 9.14851C94.5573 8.57776 94.2579 7.75955 94.2579 6.69389C94.2579 5.65616 94.5114 4.84993 95.0182 4.27519C95.5291 3.70045 96.2475 3.41308 97.1735 3.41308C98.0795 3.41308 98.78 3.6785 99.2749 4.20933C99.7698 4.74017 100.017 5.51248 100.017 6.52626C100.017 6.81363 100.005 7.08703 99.9814 7.34646H95.3236V6.22093H98.4248C98.4248 5.79386 98.315 5.46658 98.0955 5.23908C97.88 5.01158 97.5766 4.89783 97.1855 4.89783C96.7624 4.89783 96.4331 5.04949 96.1977 5.35283C95.9662 5.65217 95.8504 6.07924 95.8504 6.63402C95.8504 7.23271 96.022 7.68771 96.3653 7.99903C96.7125 8.31034 97.2054 8.466 97.844 8.466C98.1314 8.466 98.4148 8.45203 98.6942 8.4241C98.9736 8.39217 99.2589 8.35026 99.5503 8.29837L99.706 9.83101C99.2989 9.90285 98.9277 9.94875 98.5924 9.96871C98.2571 9.98867 97.9598 9.99864 97.7004 9.99864ZM105.447 9.87891V6.14908C105.447 5.76592 105.368 5.47057 105.208 5.26302C105.052 5.05548 104.829 4.95171 104.537 4.95171C103.723 4.95171 103.316 5.53842 103.316 6.71185L102.945 4.6823H103.472C103.532 4.25523 103.677 3.93793 103.909 3.73038C104.14 3.51885 104.491 3.41308 104.962 3.41308C105.633 3.41308 106.152 3.61663 106.519 4.02374C106.886 4.43085 107.07 5.00559 107.07 5.74796V9.87891H105.447ZM101.694 9.87891V3.53282H103.142L103.316 4.87388V9.87891H101.694ZM112.913 9.99864C111.819 9.99864 111.029 9.77912 110.542 9.34009C110.055 8.90105 109.812 8.19859 109.812 7.23271V6.40652H111.428V7.07705C111.428 7.55999 111.552 7.91122 111.799 8.13074C112.051 8.35026 112.462 8.46002 113.033 8.46002C113.216 8.46002 113.412 8.45004 113.619 8.43008C113.831 8.40613 114.07 8.3762 114.338 8.34028L114.482 9.85496C114.218 9.90285 113.961 9.93878 113.709 9.96272C113.462 9.98667 113.196 9.99864 112.913 9.99864ZM109.812 6.78369V1.61702H111.428V6.78369H109.812ZM108.291 5.02355V3.53282H114.242V5.02355H108.291Z" fill="white"/>
</svg>
