<svg width="43" height="10" viewBox="0 0 43 10" fill="none" xmlns="http://www.w3.org/2000/svg">
<path d="M2.82137 9.87891V1.37754H4.40191V9.87891H2.82137ZM0.396685 2.83235V1.37754H6.82659V2.83235H0.396685ZM10.5385 7.14889L10.1673 4.96368H10.7121C10.7759 3.92995 11.3167 3.41308 12.3345 3.41308C12.9372 3.41308 13.3982 3.63459 13.7175 4.07762C14.0408 4.52065 14.2024 5.15925 14.2024 5.99342H12.586C12.586 5.61825 12.5161 5.34884 12.3764 5.1852C12.2407 5.02155 12.0212 4.93973 11.7179 4.93973C11.3227 4.93973 11.0274 5.13131 10.8318 5.51447C10.6362 5.89763 10.5385 6.44244 10.5385 7.14889ZM7.58094 9.87891V8.48995H12.0232V9.87891H7.58094ZM8.922 9.87891V3.53282H10.299L10.5385 5.35283V9.87891H8.922ZM7.82041 4.92177V3.53282H10.2152L10.3349 4.92177H7.82041ZM19.1476 9.93878L19.0099 8.0589L18.9859 7.23271V5.99342C18.9859 5.65417 18.8403 5.40671 18.5489 5.25105C18.2615 5.0914 17.8325 5.00359 17.2617 4.98763L15.6393 4.94572L15.759 3.47295L17.142 3.49091C18.2915 3.50687 19.1456 3.73438 19.7044 4.17341C20.2631 4.60846 20.5425 5.24506 20.5425 6.08323V8.43008L21.4226 8.56179V9.87891L19.1476 9.93878ZM16.9983 9.99864C16.3238 9.99864 15.7989 9.83301 15.4237 9.50173C15.0486 9.17046 14.861 8.69949 14.861 8.08883C14.861 7.37839 15.1064 6.83358 15.5974 6.45441C16.0883 6.07524 16.7848 5.88566 17.6868 5.88566C18.034 5.88566 18.3334 5.90362 18.5848 5.93954C18.8403 5.97546 19.0977 6.03134 19.3571 6.10717L19.0937 7.37041C18.8383 7.31054 18.6088 7.27661 18.4052 7.26863C18.2017 7.25665 17.9881 7.25067 17.7646 7.25067C16.9264 7.25067 16.5074 7.49014 16.5074 7.96909C16.5074 8.18462 16.5832 8.35026 16.7349 8.466C16.8865 8.57776 17.1081 8.63364 17.3994 8.63364C17.7506 8.63364 18.044 8.56778 18.2795 8.43607C18.515 8.30436 18.6906 8.13673 18.8063 7.93317C18.9261 7.72962 18.9859 7.52008 18.9859 7.30455V6.90942L19.2134 8.53785H18.7046L18.9141 8.34627C18.9021 8.71346 18.8183 9.02079 18.6626 9.26824C18.507 9.51171 18.2875 9.69531 18.0041 9.81904C17.7247 9.93878 17.3894 9.99864 16.9983 9.99864ZM24.1227 9.87891L21.9494 3.53282H23.6018L25.1105 8.45403H25.2183L26.727 3.53282H28.3793L26.2061 9.87891H24.1227ZM32.8515 9.99864C31.7539 9.99864 30.9058 9.71526 30.3071 9.14851C29.7084 8.57776 29.4091 7.75955 29.4091 6.69389C29.4091 5.65616 29.6625 4.84993 30.1694 4.27519C30.6803 3.70045 31.3987 3.41308 32.3247 3.41308C33.2307 3.41308 33.9312 3.6785 34.4261 4.20933C34.921 4.74017 35.1685 5.51248 35.1685 6.52626C35.1685 6.81363 35.1565 7.08703 35.1325 7.34646H30.4747V6.22093H33.576C33.576 5.79386 33.4662 5.46658 33.2467 5.23908C33.0311 5.01158 32.7278 4.89783 32.3367 4.89783C31.9136 4.89783 31.5843 5.04949 31.3488 5.35283C31.1173 5.65217 31.0016 6.07924 31.0016 6.63402C31.0016 7.23271 31.1732 7.68771 31.5165 7.99903C31.8637 8.31034 32.3566 8.466 32.9952 8.466C33.2826 8.466 33.566 8.45203 33.8454 8.4241C34.1247 8.39217 34.4101 8.35026 34.7015 8.29837L34.8571 9.83101C34.45 9.90285 34.0788 9.94875 33.7436 9.96871C33.4083 9.98867 33.111 9.99864 32.8515 9.99864ZM40.4788 9.99864C39.6806 9.99864 39.1038 9.77912 38.7486 9.34009C38.3974 8.90105 38.2218 8.19859 38.2218 7.23271V0.898592H39.8382V7.17284C39.8382 7.43626 39.8662 7.65179 39.922 7.81942C39.9779 7.98705 40.0857 8.11078 40.2453 8.19061C40.405 8.27043 40.6425 8.31034 40.9578 8.31034C41.309 8.31034 41.752 8.23451 42.2869 8.08284L42.4724 9.74719C42.1332 9.835 41.8059 9.89886 41.4906 9.93878C41.1753 9.97869 40.838 9.99864 40.4788 9.99864ZM36.4257 2.38932V0.898592H38.3295V2.38932H36.4257Z" fill="white"/>
</svg>
