<svg width="17" height="4" viewBox="0 0 17 4" fill="none" xmlns="http://www.w3.org/2000/svg">
<path d="M1.33183 3.43018V0.259491H1.92131V3.43018H1.33183ZM0.427512 0.80208V0.259491H2.82562V0.80208H0.427512ZM4.21 2.41198L4.07157 1.59698H4.27476C4.29858 1.21144 4.50028 1.01867 4.87987 1.01867C5.10464 1.01867 5.27657 1.10129 5.39566 1.26652C5.51624 1.43175 5.57652 1.66992 5.57652 1.98104H4.97365C4.97365 1.84111 4.9476 1.74063 4.8955 1.6796C4.84489 1.61857 4.76301 1.58805 4.64988 1.58805C4.50251 1.58805 4.39236 1.6595 4.31942 1.80241C4.24647 1.94531 4.21 2.1485 4.21 2.41198ZM3.10696 3.43018V2.91215H4.76376V3.43018H3.10696ZM3.60713 3.43018V1.06333H4.12069L4.21 1.74212V3.43018H3.60713ZM3.19628 1.58135V1.06333H4.08943L4.13409 1.58135H3.19628ZM7.42088 3.4525L7.36952 2.75138L7.36059 2.44324V1.98104C7.36059 1.85451 7.30626 1.76222 7.19759 1.70416C7.09041 1.64462 6.93039 1.61187 6.71752 1.60592L6.11242 1.59029L6.15707 1.041L6.67287 1.0477C7.10158 1.05365 7.42014 1.1385 7.62854 1.30224C7.83694 1.4645 7.94114 1.70193 7.94114 2.01453V2.88982L8.26937 2.93894V3.43018L7.42088 3.4525ZM6.61928 3.47483C6.36771 3.47483 6.17196 3.41306 6.03203 3.2895C5.8921 3.16595 5.82214 2.9903 5.82214 2.76255C5.82214 2.49758 5.91369 2.29439 6.09678 2.15297C6.27988 2.01155 6.53964 1.94085 6.87606 1.94085C7.00557 1.94085 7.11721 1.94755 7.21099 1.96094C7.30626 1.97434 7.40227 1.99518 7.49903 2.02346L7.40078 2.4946C7.30552 2.47227 7.21992 2.45962 7.144 2.45664C7.06809 2.45218 6.98845 2.44994 6.90509 2.44994C6.59248 2.44994 6.43618 2.53926 6.43618 2.71789C6.43618 2.79827 6.46447 2.86005 6.52103 2.90322C6.5776 2.9449 6.66021 2.96574 6.76888 2.96574C6.89988 2.96574 7.00929 2.94118 7.09711 2.89205C7.18494 2.84293 7.25044 2.78041 7.29361 2.70449C7.33826 2.62857 7.36059 2.55042 7.36059 2.47004V2.32267L7.44544 2.93001H7.25565L7.3338 2.85856C7.32933 2.99551 7.29807 3.11013 7.24002 3.20242C7.18196 3.29323 7.10009 3.3617 6.9944 3.40785C6.8902 3.4525 6.76516 3.47483 6.61928 3.47483ZM9.2764 3.43018L8.46587 1.06333H9.08214L9.64483 2.89875H9.68502L10.2477 1.06333H10.864L10.0534 3.43018H9.2764ZM12.5319 3.47483C12.1226 3.47483 11.8062 3.36914 11.583 3.15776C11.3597 2.9449 11.248 2.63974 11.248 2.24229C11.248 1.85525 11.3426 1.55456 11.5316 1.3402C11.7221 1.12585 11.9901 1.01867 12.3354 1.01867C12.6734 1.01867 12.9346 1.11766 13.1192 1.31564C13.3038 1.51362 13.3961 1.80166 13.3961 2.17977C13.3961 2.28694 13.3916 2.38891 13.3827 2.48567H11.6455V2.06589H12.8021C12.8021 1.90661 12.7612 1.78455 12.6793 1.6997C12.5989 1.61485 12.4858 1.57242 12.3399 1.57242C12.1821 1.57242 12.0593 1.62899 11.9715 1.74212C11.8851 1.85377 11.842 2.01304 11.842 2.21996C11.842 2.44324 11.906 2.61294 12.034 2.72905C12.1635 2.84516 12.3474 2.90322 12.5855 2.90322C12.6927 2.90322 12.7984 2.89801 12.9026 2.88759C13.0068 2.87568 13.1132 2.86005 13.2219 2.8407L13.2799 3.41231C13.1281 3.43911 12.9897 3.45623 12.8646 3.46367C12.7396 3.47111 12.6287 3.47483 12.5319 3.47483ZM15.3766 3.47483C15.0789 3.47483 14.8638 3.39296 14.7313 3.22922C14.6003 3.06547 14.5348 2.80348 14.5348 2.44324V0.0808612H15.1377V2.42092C15.1377 2.51916 15.1481 2.59955 15.169 2.66207C15.1898 2.72459 15.23 2.77073 15.2895 2.8005C15.3491 2.83028 15.4377 2.84516 15.5552 2.84516C15.6862 2.84516 15.8515 2.81688 16.0509 2.76031L16.1202 3.38105C15.9936 3.4138 15.8716 3.43762 15.754 3.4525C15.6364 3.46739 15.5106 3.47483 15.3766 3.47483ZM13.865 0.636847V0.0808612H14.575V0.636847H13.865Z" fill="white"/>
</svg>
